<svg width="100" height="100" viewBox="0 0 100 100" fill="none" xmlns="http://www.w3.org/2000/svg">
<rect width="100" height="100" rx="16" fill="#1E1F25"/>
<path d="M50.0418 75C63.8722 75 75.0838 63.8072 75.0838 50.0001C75.0838 36.1928 63.8722 25 50.0418 25C36.2116 25 25 36.1928 25 50.0001C25 63.8072 36.2116 75 50.0418 75Z" fill="#1E1F25"/>
<path d="M61.0727 65.5828C61.0728 65.5828 61.0729 65.5826 61.0727 65.5826C60.7192 65.5042 60.3557 65.5678 60.0507 65.7607C56.5915 67.9537 52.5951 68.9347 48.4945 68.5967C43.5258 68.185 39.0128 65.8598 35.7826 62.0506C32.5525 58.2414 30.9998 53.4132 31.4121 48.4528C31.855 43.1266 34.5735 38.2348 38.8677 35.0355C39.4659 34.5882 39.5906 33.7394 39.1426 33.1397C38.9262 32.85 38.6106 32.662 38.2516 32.6086C37.8927 32.5553 37.5364 32.6467 37.2463 32.8627C32.3285 36.5271 29.2179 42.1253 28.7114 48.2266C28.238 53.9138 30.0121 59.446 33.7055 63.804C37.399 68.1596 42.5713 70.8202 48.2704 71.2929C48.8737 71.3437 49.4821 71.3691 50.0828 71.3691C54.1249 71.3691 58.0754 70.2204 61.5042 68.0452C62.1354 67.6462 62.3237 66.8077 61.9215 66.1774C61.7284 65.8729 61.426 65.6621 61.0726 65.5831C61.0725 65.5831 61.0725 65.5828 61.0727 65.5828V65.5828Z" fill="url(#paint0_linear_245_803)"/>
<path d="M66.3709 36.1977C66.3709 36.1969 66.3706 36.1961 66.37 36.1954C62.6716 31.8354 57.5022 29.1752 51.8135 28.7025C50.0776 28.5577 48.3263 28.6238 46.6133 28.9007C45.8751 29.0202 45.3711 29.7165 45.4907 30.4534C45.6103 31.1903 46.3078 31.6935 47.0459 31.5741C48.5351 31.3326 50.0623 31.2767 51.5895 31.4013C56.5583 31.8129 61.0712 34.1381 64.3014 37.9473C67.5315 41.7565 69.0842 46.5847 68.6718 51.5426C68.4301 54.442 67.5493 57.1637 66.0552 59.6362C65.6683 60.274 65.8745 61.1101 66.516 61.4938C66.7271 61.6209 66.969 61.6894 67.2159 61.6894C67.6868 61.6894 68.1323 61.4379 68.3767 61.0364C70.0897 58.2055 71.0976 55.0875 71.3726 51.7687C71.846 46.0897 70.0695 40.5604 66.3717 36.2C66.3712 36.1994 66.3709 36.1986 66.3709 36.1977V36.1977Z" fill="url(#paint1_linear_245_803)"/>
<path d="M45.4754 38.8818C45.3359 41.3887 45.1805 43.8911 45.1295 46.3975C45.1236 46.6836 45.0373 46.962 44.884 47.2036C44.4884 47.8269 44.1134 48.4723 43.7597 49.1388C43.2072 50.1798 41.3869 49.8818 41.3722 48.7034V48.7034C41.3366 45.4253 41.5427 42.1522 41.726 38.8792C41.7973 37.6823 42.7645 37.0801 43.7038 37.0801C44.643 37.0801 45.5467 37.6747 45.4754 38.8792V38.8818Z" fill="url(#paint2_linear_245_803)"/>
<path d="M52.7538 41.1049C52.7532 41.1042 52.752 41.1044 52.7516 41.1052C51.8686 42.7558 51.2936 44.5792 51.0469 46.4866C50.9329 47.3684 50.6123 48.2142 50.0936 48.9363C48.7771 50.7689 47.7359 52.8169 46.9464 54.9809C46.7147 55.5933 46.5162 56.2185 46.3252 56.8435C46.1063 57.5983 45.9129 58.3658 45.7474 59.1306C45.7169 59.2424 45.6939 59.3593 45.671 59.4737C45.5819 59.8752 45.4115 60.1751 45.1875 60.3936C44.8744 60.6477 44.4544 60.7722 44.0242 60.7722C43.6088 60.7722 43.2123 60.6632 42.8738 60.452C42.8498 60.4371 42.8244 60.4239 42.8024 60.4063V60.4063C42.754 60.3708 42.7082 60.3352 42.6675 60.2996C42.6191 60.2589 42.5733 60.2183 42.5249 60.17C42.4842 60.1217 42.4409 60.076 42.4002 60.0277C42.3595 59.9743 42.3238 59.9209 42.2882 59.8676C42.2526 59.8142 42.2246 59.7558 42.194 59.6973C42.0235 59.3542 41.9624 58.9425 42.0591 58.4775C42.6802 55.4815 43.706 52.521 45.1493 49.802C45.386 49.3598 45.6328 48.9227 45.8874 48.4932C46.1292 48.0918 46.3838 47.6979 46.6485 47.3091C48.2849 44.8802 50.3157 42.7459 52.7536 41.107C52.7543 41.1066 52.7544 41.1055 52.7538 41.1049V41.1049Z" fill="url(#paint3_linear_245_803)"/>
<path d="M59.792 61.4948C59.7925 61.4953 59.7922 61.4961 59.7915 61.4961C59.4839 61.4957 59.1537 61.3965 58.8184 61.1708C54.6541 58.3526 52.381 53.3643 52.4396 48.4446C52.4396 48.0431 52.4574 47.6493 52.4981 47.2477C52.5337 46.8284 52.5872 46.4091 52.6636 45.9974C53.0301 43.868 53.8752 41.8224 55.2216 40.0587C55.5882 39.581 56.0948 39.2278 56.6522 39.1516C56.7286 39.1388 56.805 39.1338 56.889 39.1338H56.9017C57.1918 39.1338 57.4973 39.21 57.7926 39.3879C58.1812 39.6237 58.5066 40.0595 58.6546 40.5362C58.6552 40.5381 58.6555 40.54 58.6555 40.542V40.542C58.6555 40.5434 58.6556 40.5448 58.6559 40.5462C58.7557 40.9943 58.6975 41.5037 58.4863 41.9119C58.4804 41.9232 58.4778 41.9359 58.4703 41.9462V41.9462C58.4674 41.9502 58.4627 41.9537 58.4594 41.9575C58.4491 41.9694 58.4406 41.9838 58.434 41.9925C58.3755 42.0688 58.3093 42.1526 58.2558 42.2339C57.9377 42.6711 57.6525 43.131 57.4056 43.6012C57.2045 43.9797 57.0214 44.3685 56.8686 44.7624C56.1839 46.5031 55.942 48.3937 56.2475 50.2996C56.7032 53.1432 58.2737 56.279 60.7071 57.9308C62.366 59.0509 61.3392 61.4915 59.7926 61.4935C59.7919 61.4935 59.7915 61.4943 59.792 61.4948V61.4948Z" fill="url(#paint4_linear_245_803)"/>
<defs>
<linearGradient id="paint0_linear_245_803" x1="28.635" y1="51.985" x2="62.1328" y2="51.985" gradientUnits="userSpaceOnUse">
<stop stop-color="#FF914C"/>
<stop offset="1" stop-color="#C24075"/>
</linearGradient>
<linearGradient id="paint1_linear_245_803" x1="45.4729" y1="45.1592" x2="71.4489" y2="45.1592" gradientUnits="userSpaceOnUse">
<stop stop-color="#FF914C"/>
<stop offset="1" stop-color="#C24075"/>
</linearGradient>
<linearGradient id="paint2_linear_245_803" x1="43.5053" y1="38.216" x2="43.1552" y2="58.8427" gradientUnits="userSpaceOnUse">
<stop stop-color="#FF914C"/>
<stop offset="1" stop-color="#C24075"/>
</linearGradient>
<linearGradient id="paint3_linear_245_803" x1="42.726" y1="58.32" x2="55.1659" y2="40.8856" gradientUnits="userSpaceOnUse">
<stop stop-color="#FF914C"/>
<stop offset="1" stop-color="#C24075"/>
</linearGradient>
<linearGradient id="paint4_linear_245_803" x1="55.069" y1="41.0269" x2="57.6745" y2="59.3475" gradientUnits="userSpaceOnUse">
<stop stop-color="#FF914C"/>
<stop offset="1" stop-color="#C24075"/>
</linearGradient>
</defs>
</svg>
