<svg width="100" height="100" viewBox="0 0 100 100" fill="none" xmlns="http://www.w3.org/2000/svg">
<g clip-path="url(#clip0_245_871)">
<mask id="mask0_245_871" style="mask-type:alpha" maskUnits="userSpaceOnUse" x="0" y="0" width="100" height="100">
<path d="M95.2941 0H4.70588C2.1069 0 0 2.1069 0 4.70588V95.2941C0 97.8931 2.1069 100 4.70588 100H95.2941C97.8931 100 100 97.8931 100 95.2941V4.70588C100 2.1069 97.8931 0 95.2941 0Z" fill="#F2F4F9"/>
</mask>
<g mask="url(#mask0_245_871)">
<path d="M95.2941 0H4.70588C2.1069 0 0 2.1069 0 4.70588V95.2941C0 97.8931 2.1069 100 4.70588 100H95.2941C97.8931 100 100 97.8931 100 95.2941V4.70588C100 2.1069 97.8931 0 95.2941 0Z" fill="white"/>
<path d="M18.8884 28.4531C17.8142 27.8355 16.4707 28.6061 16.4707 29.839V39.8343C16.4707 40.9767 17.0825 42.0331 18.0778 42.6049L44.1107 57.5814C45.7476 58.5222 47.6027 59.0173 49.4907 59.0173C51.3787 59.0173 53.2338 58.5222 54.8707 57.5814L80.9025 42.6049C81.3905 42.3253 81.7962 41.922 82.0786 41.4355C82.3609 40.9491 82.51 40.3968 82.5107 39.8343V29.839C82.5107 28.6049 81.166 27.8355 80.0931 28.4531L53.2566 43.8908C52.1108 44.5493 50.8123 44.8959 49.4907 44.8959C48.1691 44.8959 46.8706 44.5493 45.7248 43.8908L18.8884 28.4531ZM18.8919 47.6708C17.8189 47.0496 16.4707 47.8202 16.4707 49.0543V58.6755C16.4707 59.8143 17.0801 60.8673 18.0707 61.4402L35.526 71.5461C36.5989 72.1673 37.9472 71.3967 37.9472 70.1626V60.5414C37.9472 59.4026 37.3378 58.3484 36.3472 57.7755L18.8919 47.6708ZM80.0895 47.6708C81.1625 47.0496 82.5107 47.8202 82.5107 49.0543V58.6755C82.5107 59.8143 81.9013 60.8673 80.9107 61.4402L63.4554 71.5461C62.3813 72.1673 61.0342 71.3967 61.0342 70.1626V60.5414C61.0342 59.4026 61.6436 58.3484 62.6342 57.7755L80.0895 47.672V47.6708Z" fill="#6DDAC0"/>
</g>
</g>
<defs>
<clipPath id="clip0_245_871">
<rect width="100" height="100" rx="16" fill="white"/>
</clipPath>
</defs>
</svg>
